<svg width="45" height="45" viewBox="0 0 45 45" fill="none" xmlns="http://www.w3.org/2000/svg">
<path d="M6.59004 29.09C9.04069 26.6395 11.9576 24.8253 15.1401 23.7271C11.7316 21.3795 9.49219 17.4505 9.49219 13.0078C9.49219 5.83532 15.3275 0 22.5 0C29.6725 0 35.5078 5.83532 35.5078 13.0078C35.5078 17.4505 33.2684 21.3795 29.8598 23.7271C33.0423 24.8253 35.9592 26.6395 38.4099 29.09C42.6596 33.3398 45 38.99 45 45H41.4844C41.4844 34.532 32.968 26.0156 22.5 26.0156C12.032 26.0156 3.51562 34.532 3.51562 45H0C0 38.99 2.34044 33.3398 6.59004 29.09ZM22.5 22.5C27.734 22.5 31.9922 18.2419 31.9922 13.0078C31.9922 7.77375 27.734 3.51562 22.5 3.51562C17.266 3.51562 13.0078 7.77375 13.0078 13.0078C13.0078 18.2419 17.266 22.5 22.5 22.5Z" fill="url(#paint0_linear_21_15494)"/>
<defs>
<linearGradient id="paint0_linear_21_15494" x1="0" y1="22.5" x2="62.446" y2="22.7954" gradientUnits="userSpaceOnUse">
<stop stop-color="#8D62E3"/>
<stop offset="1" stop-color="#4F64F0"/>
</linearGradient>
</defs>
</svg>
