<svg width="45" height="45" viewBox="0 0 45 45" fill="none" xmlns="http://www.w3.org/2000/svg">
<path d="M22.5 42.6C22.3152 42.6008 22.1322 42.5648 21.9615 42.494C21.7909 42.4231 21.6361 42.3189 21.5063 42.1875L10.7063 31.3875C8.37074 29.0544 6.7797 26.081 6.13442 22.8435C5.48913 19.6059 5.81859 16.2497 7.08112 13.1995C8.34365 10.1492 10.4825 7.542 13.2271 5.70759C15.9718 3.87318 19.1988 2.89404 22.5 2.89404C25.8012 2.89404 29.0283 3.87318 31.7729 5.70759C34.5175 7.542 36.6564 10.1492 37.9189 13.1995C39.1814 16.2497 39.5109 19.6059 38.8656 22.8435C38.2203 26.081 36.6293 29.0544 34.2938 31.3875L23.4938 42.1875C23.3639 42.3189 23.2091 42.4231 23.0385 42.494C22.8678 42.5648 22.6848 42.6008 22.5 42.6ZM22.5 5.71873C19.7572 5.72065 17.0765 6.53544 14.7966 8.06018C12.5166 9.58491 10.7397 11.7512 9.69034 14.2853C8.64098 16.8194 8.36622 19.6077 8.90079 22.2979C9.43536 24.9881 10.7553 27.4596 12.6938 29.4L22.5 39.2062L32.3063 29.4C34.2448 27.4596 35.5647 24.9881 36.0992 22.2979C36.6338 19.6077 36.359 16.8194 35.3097 14.2853C34.2603 11.7512 32.4834 9.58491 30.2035 8.06018C27.9235 6.53544 25.2428 5.72065 22.5 5.71873Z" fill="url(#paint0_linear_21_16054)"/>
<path d="M22.5 25.7813C21.1094 25.7813 19.7499 25.3689 18.5937 24.5963C17.4374 23.8237 16.5362 22.7255 16.004 21.4407C15.4718 20.156 15.3326 18.7422 15.6039 17.3783C15.8752 16.0143 16.5448 14.7615 17.5282 13.7782C18.5115 12.7948 19.7643 12.1252 21.1283 11.8539C22.4922 11.5826 23.906 11.7218 25.1907 12.254C26.4755 12.7862 27.5737 13.6874 28.3463 14.8436C29.1189 15.9999 29.5313 17.3594 29.5313 18.75C29.5313 20.6148 28.7905 22.4032 27.4718 23.7218C26.1532 25.0405 24.3648 25.7813 22.5 25.7813ZM22.5 14.5313C21.6656 14.5313 20.85 14.7787 20.1562 15.2422C19.4624 15.7058 18.9217 16.3647 18.6024 17.1356C18.2831 17.9064 18.1995 18.7547 18.3623 19.573C18.5251 20.3914 18.9269 21.1431 19.5169 21.7331C20.1069 22.3231 20.8586 22.7249 21.677 22.8877C22.4953 23.0505 23.3436 22.9669 24.1144 22.6476C24.8853 22.3283 25.5442 21.7876 26.0078 21.0938C26.4713 20.4 26.7188 19.5844 26.7188 18.75C26.7188 17.6311 26.2743 16.5581 25.4831 15.7669C24.6919 14.9757 23.6189 14.5313 22.5 14.5313Z" fill="url(#paint1_linear_21_16054)"/>
<defs>
<linearGradient id="paint0_linear_21_16054" x1="5.8125" y1="22.747" x2="52.127" y2="22.9311" gradientUnits="userSpaceOnUse">
<stop stop-color="#8D62E3"/>
<stop offset="1" stop-color="#4F64F0"/>
</linearGradient>
<linearGradient id="paint1_linear_21_16054" x1="15.4688" y1="18.75" x2="34.9831" y2="18.8423" gradientUnits="userSpaceOnUse">
<stop stop-color="#8D62E3"/>
<stop offset="1" stop-color="#4F64F0"/>
</linearGradient>
</defs>
</svg>
