<svg width="45" height="45" viewBox="0 0 45 45" fill="none" xmlns="http://www.w3.org/2000/svg">
<path d="M43.6816 41.9913H41.4012V31.8873C42.1001 31.3104 42.4982 30.4923 42.4982 29.6189V26.2199C42.4982 24.3681 40.8482 22.8613 38.8201 22.8613H37.099V14.5987C37.099 13.2174 35.9755 12.0936 34.5945 12.0936H34.4382V11.1895C35.996 10.6433 37.1166 9.15867 37.1166 7.41624C37.1166 6.83124 36.9465 5.84317 35.6205 3.37459C34.937 2.10211 34.2634 1.03204 34.2349 0.987041C33.9935 0.604277 33.5725 0.37207 33.1198 0.37207C32.6672 0.37207 32.2463 0.604277 32.0048 0.987041C31.9764 1.03204 31.3028 2.1022 30.6192 3.37459C29.2931 5.84317 29.1231 6.83124 29.1231 7.41624C29.1231 9.15858 30.2437 10.6433 31.8015 11.1895V12.0936H31.6452C30.2642 12.0936 29.1407 13.2174 29.1407 14.5987V22.8613H26.4792V14.5987C26.4792 13.2174 25.3557 12.0936 23.9746 12.0936H23.8184V11.1895C25.376 10.6433 26.4966 9.15867 26.4966 7.41624C26.4966 6.83124 26.3266 5.84317 25.0006 3.37459C24.3171 2.10211 23.6435 1.03204 23.6152 0.987129C23.3736 0.604277 22.9526 0.37207 22.5 0.37207C22.0474 0.37207 21.6265 0.604277 21.3849 0.987041C21.3565 1.03204 20.6829 2.1022 19.9993 3.37459C18.6732 5.84317 18.5033 6.83124 18.5033 7.41624C18.5033 9.15858 19.6239 10.6433 21.1816 11.1895V12.0936H21.0254C19.6443 12.0936 18.5208 13.2174 18.5208 14.5987V22.8613H15.8593V14.5987C15.8593 13.2174 14.7358 12.0936 13.3548 12.0936H13.1985V11.1895C14.7563 10.6433 15.8769 9.15867 15.8769 7.41624C15.8769 6.83124 15.7068 5.84317 14.3808 3.37459C13.6973 2.10211 13.0237 1.03204 12.9952 0.987041C12.7538 0.604277 12.3328 0.37207 11.8802 0.37207C11.4275 0.37207 11.0066 0.604277 10.7651 0.987041C10.7367 1.03204 10.0631 2.1022 9.37951 3.37459C8.05342 5.84317 7.88335 6.83124 7.88335 7.41624C7.88335 9.15858 9.00395 10.6433 10.5617 11.1895V12.0936H10.4055C9.02443 12.0936 7.90093 13.2174 7.90093 14.5987V22.8613H6.17985C4.15178 22.8613 2.50172 24.3681 2.50172 26.2199V29.6189C2.50172 30.4923 2.89978 31.3104 3.59868 31.8873V41.9913H1.31836C0.590273 41.9913 0 42.5815 0 43.3096C0 44.0377 0.590273 44.628 1.31836 44.628H43.6816C44.4097 44.628 45 44.0377 45 43.3096C45 42.5815 44.4097 41.9913 43.6816 41.9913ZM31.7598 7.41721C31.768 6.99612 32.3342 5.72479 33.1201 4.29023C33.9056 5.72399 34.4714 6.9948 34.4798 7.41694C34.4795 8.16709 33.8695 8.77731 33.1198 8.77731C32.3699 8.77731 31.7598 8.16674 31.7598 7.41721ZM31.7774 14.7303H34.4624V22.8538H31.7774V14.7303ZM21.14 7.41721C21.1482 6.99612 21.7143 5.72487 22.5002 4.29032C23.2857 5.72399 23.8515 6.9948 23.8599 7.41694C23.8596 8.16709 23.2497 8.77731 22.5 8.77731C21.7501 8.77731 21.14 8.16674 21.14 7.41721ZM21.1575 14.7303H23.8425V22.8538H21.1575V14.7303ZM10.5201 7.41721C10.5282 6.99612 11.0944 5.72479 11.8804 4.29023C12.6658 5.72399 13.2317 6.9948 13.2401 7.41694C13.2398 8.16709 12.6298 8.77731 11.8801 8.77731C11.1302 8.77731 10.5201 8.16674 10.5201 7.41721ZM10.5376 14.7303H13.2226V22.8538H10.5376V14.7303ZM38.7645 41.9913H6.2354V32.6488C6.44159 32.625 6.64717 32.5835 6.84958 32.5235L10.1776 31.5383C12.101 30.9692 14.2191 30.9692 16.1423 31.5383L18.7691 32.316C19.9721 32.6721 21.236 32.8501 22.4998 32.8501C23.7638 32.8501 25.0277 32.6721 26.2306 32.316L28.8575 31.5383C30.7805 30.9691 32.8989 30.9691 34.8221 31.5383L38.1501 32.5235C38.3525 32.5835 38.5581 32.625 38.7643 32.6488V41.9913H38.7645ZM39.8615 29.6189C39.8615 29.7287 39.7727 29.8181 39.6983 29.8735C39.5321 29.9976 39.2347 30.0947 38.8987 29.9953L35.5707 29.0102C33.1648 28.2979 30.515 28.2979 28.1091 29.0102L25.4822 29.7878C23.5592 30.357 21.4408 30.3572 19.5176 29.7878L16.8907 29.0102C15.6877 28.654 14.4241 28.476 13.16 28.476C11.8962 28.476 10.632 28.654 9.42926 29.0102L6.1011 29.9953C5.76519 30.0948 5.46776 29.9975 5.30156 29.8735C5.22712 29.818 5.13844 29.7287 5.13844 29.6189V26.2199C5.13844 25.8785 5.56611 25.4981 6.17985 25.4981H38.8201C39.4338 25.4981 39.8616 25.8785 39.8616 26.2199V29.6189H39.8615Z" fill="url(#paint0_linear_21_15773)"/>
<defs>
<linearGradient id="paint0_linear_21_15773" x1="0" y1="22.5" x2="62.446" y2="22.8003" gradientUnits="userSpaceOnUse">
<stop stop-color="#8D62E3"/>
<stop offset="1" stop-color="#4F64F0"/>
</linearGradient>
</defs>
</svg>
