<svg width="39" height="34" viewBox="0 0 39 34" fill="none" xmlns="http://www.w3.org/2000/svg">
<path d="M18.49 13.6229C17.9554 12.9713 17.4676 12.3315 16.8849 11.7691C16.4365 11.3352 15.9531 10.9554 15.3878 10.6851C14.2106 10.1212 13.0086 10.2848 12.033 11.1467C11.6007 11.528 11.2312 11.9648 10.9581 12.4746C10.4425 13.4432 10.5812 14.4161 11.3363 15.2123C11.6124 15.503 11.9308 15.7382 12.2711 15.9456C12.366 16.004 12.4609 16.0625 12.5953 16.1443C12.4332 16.2042 12.3193 16.1852 12.2083 16.1852C8.63289 16.1866 5.05753 16.1866 1.48216 16.1852C1.1141 16.1852 1.13017 16.2597 0.950526 15.8316C0.300592 14.2934 -0.0221845 12.6865 0.00118394 11.0211C0.0362366 8.40329 0.737289 5.99145 2.35993 3.90099C4.0337 1.74479 6.22741 0.450487 8.94399 0.0940429C11.9147 -0.297462 14.5071 0.535216 16.7198 2.55848C17.3259 3.11213 17.859 3.73007 18.3512 4.38598C18.4549 4.52476 18.5002 4.66354 18.4988 4.83738C18.4929 7.66556 18.4914 10.4937 18.49 13.3219V13.6229Z" fill="white"/>
<path d="M26.0091 16.1216C26.3435 15.9215 26.6532 15.7345 26.9307 15.5008C27.4652 15.0479 27.845 14.5074 27.9151 13.7843C27.9487 13.4381 27.8932 13.1035 27.7588 12.7924C27.3498 11.8501 26.7028 11.111 25.7842 10.6435C24.9604 10.2242 24.1148 10.2724 23.2808 10.6406C22.6075 10.9386 22.051 11.3987 21.5399 11.9188C21.1207 12.3454 20.7453 12.8055 20.3977 13.292C20.3598 13.3446 20.3379 13.4191 20.2502 13.4278C20.1976 13.3314 20.2225 13.2263 20.2225 13.1269C20.2239 10.3805 20.2254 7.63417 20.2283 4.88779C20.2283 4.73733 20.2239 4.5927 20.3247 4.45539C21.499 2.85431 22.923 1.55124 24.7574 0.739016C26.0178 0.180976 27.344 -0.0600625 28.7169 0.0129794C33.0094 0.243792 35.948 2.43359 37.6816 6.30042C38.5214 8.17176 38.7434 10.1643 38.5886 12.1964C38.4907 13.4848 38.1577 14.7236 37.6539 15.9171C37.5662 16.1231 37.4567 16.1903 37.2391 16.1903C33.5819 16.1844 29.9247 16.1859 26.2676 16.1844C26.1916 16.1844 26.1069 16.2137 26.0091 16.1216Z" fill="white"/>
<path d="M20.6206 17.9214H36.5389C36.5593 18.0748 36.4512 18.1639 36.3855 18.2661C35.6114 19.4684 34.7074 20.567 33.7405 21.6158C32.1544 23.3353 30.4339 24.9159 28.6696 26.4468C25.9252 28.8251 23.1634 31.1843 20.4103 33.5523C20.3577 33.5976 20.3022 33.6385 20.254 33.6765C20.2292 33.6663 20.219 33.6634 20.2087 33.6575C20.2 33.6517 20.1854 33.6429 20.1854 33.6371C20.1854 29.1523 20.1883 24.6661 20.1912 20.1813C20.1912 20.1375 20.2117 20.0937 20.2263 20.0338C20.3562 20.044 20.4044 20.1477 20.4672 20.2164C21.7087 21.5662 23.2262 22.4266 25.0241 22.7874C25.1614 22.8152 25.3016 22.8356 25.4403 22.8356C25.8259 22.8371 26.1063 22.5858 26.1589 22.2075C26.2086 21.8467 25.9866 21.5136 25.62 21.4157C25.417 21.3617 25.2081 21.331 25.0051 21.2799C23.1298 20.8138 21.7204 19.7168 20.7038 18.0908C20.6776 18.0529 20.663 18.009 20.6206 17.9214Z" fill="white"/>
<path d="M18.4608 19.4671V33.6445C18.341 33.6985 18.2972 33.6094 18.2417 33.5612C15.1176 30.8353 11.9132 28.2029 8.82423 25.4346C6.93577 23.7415 5.10135 21.9928 3.50938 20.0076C3.06392 19.451 2.64182 18.8783 2.25624 18.2779C2.1949 18.1815 2.13794 18.0822 2.0766 17.9799C2.33073 17.8967 16.9579 17.8631 17.6195 17.9376C17.6706 18.031 17.5991 18.0939 17.5582 18.1581C16.4628 19.8615 14.9511 20.9644 12.9458 21.3559C12.8421 21.3764 12.7384 21.3939 12.6391 21.426C12.3207 21.5283 12.1002 21.8657 12.1382 22.1842C12.1849 22.564 12.4624 22.8284 12.8392 22.8372C13.1941 22.846 13.5315 22.7408 13.8689 22.6473C15.5762 22.1784 16.9886 21.2507 18.1161 19.8878C18.2169 19.7636 18.3191 19.638 18.4608 19.4671Z" fill="white"/>
<path d="M14.0744 11.8172C14.3154 11.826 14.5783 11.9165 14.8295 12.0465C15.345 12.3124 15.7701 12.6952 16.1556 13.1203C16.8421 13.8755 17.4044 14.7184 17.901 15.6081C17.9287 15.6592 17.9608 15.7089 17.9813 15.7629C18.0996 16.0916 18.009 16.2114 17.6746 16.15C16.4346 15.9236 15.2078 15.649 14.0335 15.1771C13.5778 14.9945 13.1338 14.7856 12.7365 14.4934C11.9931 13.9456 11.9347 13.5191 12.4926 12.796C12.6927 12.5359 12.9103 12.2934 13.1835 12.1064C13.4391 11.9311 13.7136 11.8143 14.0744 11.8172Z" fill="white"/>
<path d="M24.5578 11.8187C24.8587 11.8231 25.1274 11.9253 25.3728 12.0948C25.773 12.3738 26.0811 12.7375 26.3178 13.1583C26.5485 13.5673 26.4989 13.8522 26.1688 14.2013C25.8913 14.4935 25.5524 14.6994 25.199 14.8791C24.257 15.3568 23.2463 15.6388 22.2239 15.8769C21.7814 15.9806 21.3359 16.0683 20.889 16.1501C20.5837 16.2056 20.5063 16.115 20.5779 15.8155C20.5881 15.7702 20.6056 15.7264 20.629 15.6855C21.2512 14.5709 21.9493 13.5103 22.9001 12.6426C23.2901 12.2876 23.718 11.9838 24.2453 11.8596C24.349 11.8362 24.4512 11.8143 24.5578 11.8187Z" fill="white"/>
</svg>
