<svg width="85" height="45" viewBox="0 0 85 45" fill="none" xmlns="http://www.w3.org/2000/svg">
<g clip-path="url(#clip0_21_15951)">
<path d="M59.473 26.3338C59.6364 26.1704 59.7305 25.9438 59.7305 25.7128C59.7305 25.4814 59.6364 25.2548 59.473 25.0914C59.3095 24.9279 59.0826 24.8339 58.8516 24.8339C58.6205 24.8339 58.3936 24.9279 58.2301 25.0914C58.0667 25.2548 57.9727 25.4814 57.9727 25.7128C57.9727 25.9438 58.0667 26.1704 58.2301 26.3338C58.3936 26.4976 58.6205 26.5917 58.8516 26.5917C59.0826 26.5913 59.3095 26.4976 59.473 26.3338Z" fill="url(#paint0_linear_21_15951)"/>
<path d="M68.5668 25.1181C68.1119 24.4545 67.4246 24.0119 66.6322 23.8722C65.5446 23.6799 64.4779 24.1132 63.8163 24.9204V17.9654C63.8163 16.3524 62.5038 15.0403 60.8908 15.0403C60.4789 15.0403 60.0868 15.1264 59.7308 15.2809V14.8617C59.7308 13.2488 58.4182 11.9366 56.8053 11.9366C55.1924 11.9366 53.8802 13.2488 53.8802 14.8617V15.2809C53.5242 15.1264 53.1318 15.0403 52.7198 15.0403C51.1069 15.0403 49.7944 16.3524 49.7944 17.9654V19.9539C49.4387 19.7997 49.0463 19.7136 48.6343 19.7136C47.8381 19.7136 47.1158 20.0335 46.5877 20.5513C46.0601 20.0335 45.3374 19.7136 44.5415 19.7136C44.1292 19.7136 43.7371 19.7994 43.3811 19.9539V17.9657C43.3811 16.3524 42.0689 15.0403 40.456 15.0403C40.0437 15.0403 39.6516 15.1264 39.2956 15.2809V14.8621C39.2956 13.2488 37.9834 11.9366 36.3705 11.9366C34.7572 11.9366 33.4451 13.2492 33.4451 14.8621V15.2809C33.089 15.1264 32.697 15.0403 32.2846 15.0403C30.6717 15.0403 29.3595 16.3528 29.3595 17.9657V24.9204C28.698 24.1132 27.6313 23.6803 26.5433 23.8722C25.7509 24.0119 25.0639 24.4545 24.609 25.1181C24.1541 25.7821 23.9893 26.5824 24.1448 27.372L25.2163 32.8058C25.6376 34.9412 26.6748 36.882 28.2156 38.4187L28.998 39.1987C29.7537 39.9523 30.1698 40.9545 30.1698 42.0215V44.1199C30.1698 44.6054 30.5632 44.9988 31.0487 44.9988C31.5341 44.9988 31.9276 44.6054 31.9276 44.1199V42.0215C31.9276 40.4841 31.3281 39.0398 30.2395 37.9542L29.4567 37.1738C28.1641 35.885 27.2941 34.257 26.9408 32.4659L25.8697 27.0321C25.8058 26.7098 25.8731 26.3829 26.0589 26.112C26.2446 25.8412 26.5251 25.6602 26.8485 25.6032C27.4757 25.493 28.0851 25.8906 28.2369 26.5086L28.7903 28.7669C28.8679 29.0835 29.0609 29.3372 29.3156 29.4934C29.3173 29.4948 29.3187 29.4958 29.3204 29.4968L29.3376 29.5071C29.3427 29.5102 29.3475 29.5137 29.353 29.5167L31.4586 30.8035C32.4343 31.3995 33.0403 32.4803 33.0403 33.6232C33.0403 34.1087 33.4337 34.5021 33.9192 34.5021C34.4046 34.5021 34.7981 34.1087 34.7981 33.6232C34.7981 31.8723 33.8698 30.2171 32.3753 29.3035L31.1153 28.5335C31.116 28.5177 31.1174 28.5019 31.1174 28.4858V17.9654C31.1174 17.3216 31.6409 16.7981 32.2846 16.7981C32.8858 16.7981 33.3816 17.2543 33.4451 17.8387V25.7127C33.4451 26.1982 33.8385 26.5917 34.324 26.5917C34.8094 26.5917 35.2029 26.1982 35.2029 25.7127V14.8617C35.2029 14.218 35.7264 13.6944 36.3705 13.6944C37.0142 13.6944 37.5378 14.218 37.5378 14.8617V25.7127C37.5378 26.1982 37.9312 26.5917 38.4167 26.5917C38.9022 26.5917 39.2956 26.1982 39.2956 25.7127V17.8387C39.3591 17.2543 39.8549 16.7981 40.456 16.7981C41.0998 16.7981 41.6233 17.3216 41.6233 17.9654L41.6161 25.7127C41.6161 26.1979 42.0096 26.5917 42.495 26.5917C42.9805 26.5917 43.3739 26.1979 43.3739 25.7127L43.3811 22.5116C43.4446 21.9273 43.9407 21.471 44.5415 21.471C45.1853 21.471 45.7088 21.9949 45.7088 22.6387V31.4757C45.7088 33.9243 44.7541 36.2249 43.0203 37.9539C41.9316 39.0394 41.3322 40.4841 41.3322 42.0212V44.1199C41.3322 44.605 41.7256 44.9985 42.2111 44.9985C42.6962 44.9985 43.09 44.605 43.09 44.1199V42.0212C43.09 40.9545 43.5057 39.952 44.2614 39.1987C45.2632 38.1997 46.0463 37.0403 46.5877 35.7786C47.1295 37.0403 47.9126 38.1997 48.9144 39.1987C49.6697 39.952 50.0858 40.9545 50.0858 42.0212V44.1199C50.0858 44.605 50.4793 44.9985 50.9647 44.9985C51.4502 44.9985 51.8436 44.605 51.8436 44.1199V42.0212C51.8436 40.4838 51.2442 39.0394 50.1555 37.9539C48.4218 36.2249 47.4666 33.9243 47.4666 31.4757V22.6387C47.4666 21.9949 47.9906 21.471 48.6343 21.471C49.2351 21.471 49.7312 21.9276 49.7944 22.512L49.8016 25.7127C49.8016 26.1979 50.1954 26.5917 50.6805 26.5917C51.1659 26.5917 51.5594 26.1979 51.5594 25.7127L51.5522 17.9654C51.5522 17.3216 52.0761 16.7981 52.7198 16.7981C53.3206 16.7981 53.8167 17.2543 53.8802 17.8387V25.7127C53.8802 26.1982 54.2737 26.5917 54.7588 26.5917C55.2442 26.5917 55.6377 26.1982 55.6377 25.7127V14.8617C55.6377 14.218 56.1616 13.6944 56.8053 13.6944C57.4491 13.6944 57.973 14.218 57.973 14.8617V22.4996C57.973 22.9847 58.3664 23.3782 58.8519 23.3782C59.337 23.3782 59.7308 22.9847 59.7308 22.4996V17.8387C59.7939 17.2543 60.29 16.7981 60.8908 16.7981C61.5346 16.7981 62.0585 17.3216 62.0585 17.9654V28.4858C62.0585 28.5019 62.0599 28.5173 62.0605 28.5335L60.8002 29.3035C59.3061 30.2168 58.3777 31.8719 58.3777 33.6232C58.3777 34.1083 58.7712 34.5021 59.2566 34.5021C59.7421 34.5021 60.1355 34.1083 60.1355 33.6232C60.1355 32.4799 60.7415 31.3995 61.7169 30.8035L63.8554 29.4968C63.8602 29.4937 63.8643 29.4903 63.8692 29.4872C64.1194 29.3303 64.3086 29.0794 64.3852 28.7669L64.9389 26.5086C65.0903 25.8902 65.7004 25.493 66.327 25.6032C66.6507 25.6602 66.9309 25.8408 67.1166 26.112C67.3024 26.3829 67.3697 26.7098 67.3061 27.0321L66.2346 32.4655C65.8814 34.2566 65.0114 35.8847 63.7188 37.1738L62.9364 37.9542C61.8477 39.0398 61.2482 40.4841 61.2482 42.0215V44.1199C61.2482 44.605 61.6417 44.9988 62.1271 44.9988C62.6126 44.9988 63.006 44.605 63.006 44.1199V42.0215C63.006 40.9545 63.4221 39.952 64.1775 39.1987L64.9599 38.4184C66.5011 36.8817 67.5382 34.9409 67.9591 32.8058L69.0306 27.372C69.1865 26.5824 69.0217 25.7821 68.5668 25.1181Z" fill="url(#paint1_linear_21_15951)"/>
<path d="M42.3677 12.0349C44.2134 13.7872 46.0343 14.9706 46.1109 15.0201C46.2561 15.1138 46.4219 15.1608 46.5881 15.1608C46.7539 15.1608 46.9198 15.1141 47.065 15.0201C47.1419 14.9706 48.9625 13.7872 50.8082 12.0349C53.389 9.58496 54.6973 7.29467 54.6973 5.22719C54.6973 2.34501 52.4242 0.00012207 49.6306 0.00012207C48.5306 0.00012207 47.4598 0.375029 46.5881 1.04828C45.7164 0.375029 44.6456 0.00012207 43.5456 0.00012207C40.7516 0.00012207 38.4785 2.34501 38.4785 5.22719C38.4785 7.29467 39.7869 9.58496 42.3677 12.0349ZM43.5456 1.75793C44.4578 1.75793 45.3075 2.13901 45.9385 2.83149C46.1051 3.01414 46.3409 3.11816 46.5881 3.11816C46.8353 3.11816 47.0712 3.01414 47.2377 2.83149C47.8683 2.13901 48.7184 1.75793 49.6306 1.75793C51.4554 1.75793 52.9395 3.3142 52.9395 5.22719C52.9395 8.18215 48.7242 11.7324 46.5878 13.2224C44.4509 11.7345 40.2363 8.18764 40.2363 5.22719C40.2363 3.3142 41.7208 1.75793 43.5456 1.75793Z" fill="url(#paint2_linear_21_15951)"/>
<path d="M63.4619 4.4324C63.9474 4.4324 64.3408 4.03896 64.3408 3.5535V2.46106C64.3408 1.97594 63.9474 1.58215 63.4619 1.58215C62.9765 1.58215 62.583 1.97594 62.583 2.46106V3.5535C62.583 4.03896 62.9765 4.4324 63.4619 4.4324Z" fill="url(#paint3_linear_21_15951)"/>
<path d="M63.4619 9.668C63.9474 9.668 64.3408 9.27421 64.3408 8.7891V7.69665C64.3408 7.2112 63.9474 6.81775 63.4619 6.81775C62.9765 6.81775 62.583 7.2112 62.583 7.69665V8.7891C62.583 9.27421 62.9765 9.668 63.4619 9.668Z" fill="url(#paint4_linear_21_15951)"/>
<path d="M65.5339 6.50402H66.6264C67.1118 6.50402 67.5053 6.11023 67.5053 5.62512C67.5053 5.13966 67.1118 4.74622 66.6264 4.74622H65.5339C65.0485 4.74622 64.655 5.13966 64.655 5.62512C64.655 6.11023 65.0485 6.50402 65.5339 6.50402Z" fill="url(#paint5_linear_21_15951)"/>
<path d="M60.2984 6.50402H61.3908C61.8763 6.50402 62.2697 6.11023 62.2697 5.62512C62.2697 5.13966 61.8763 4.74622 61.3908 4.74622H60.2984C59.8132 4.74622 59.4198 5.13966 59.4198 5.62512C59.4198 6.11023 59.8132 6.50402 60.2984 6.50402Z" fill="url(#paint6_linear_21_15951)"/>
<path d="M29.6494 8.85611C30.1349 8.85611 30.5283 8.46267 30.5283 7.97721V6.88476C30.5283 6.39931 30.1349 6.00586 29.6494 6.00586C29.164 6.00586 28.7705 6.39931 28.7705 6.88476V7.97721C28.7705 8.46267 29.164 8.85611 29.6494 8.85611Z" fill="url(#paint7_linear_21_15951)"/>
<path d="M29.6494 14.0914C30.1349 14.0914 30.5283 13.6979 30.5283 13.2128V12.1204C30.5283 11.6349 30.1349 11.2415 29.6494 11.2415C29.164 11.2415 28.7705 11.6349 28.7705 12.1204V13.2128C28.7705 13.6979 29.164 14.0914 29.6494 14.0914Z" fill="url(#paint8_linear_21_15951)"/>
<path d="M31.7207 10.9277H32.8131C33.2986 10.9277 33.692 10.5339 33.692 10.0488C33.692 9.56337 33.2986 9.16992 32.8131 9.16992H31.7207C31.2352 9.16992 30.8418 9.56337 30.8418 10.0488C30.8418 10.5339 31.2352 10.9277 31.7207 10.9277Z" fill="url(#paint9_linear_21_15951)"/>
<path d="M26.4853 10.9277H27.5778C28.0629 10.9277 28.4564 10.5339 28.4564 10.0488C28.4564 9.56337 28.0629 9.16992 27.5778 9.16992H26.4853C25.9999 9.16992 25.6064 9.56337 25.6064 10.0488C25.6064 10.5339 25.9999 10.9277 26.4853 10.9277Z" fill="url(#paint10_linear_21_15951)"/>
</g>
<defs>
<linearGradient id="paint0_linear_21_15951" x1="57.9727" y1="25.7128" x2="60.4119" y2="25.7243" gradientUnits="userSpaceOnUse">
<stop stop-color="#8D62E3"/>
<stop offset="1" stop-color="#4F64F0"/>
</linearGradient>
<linearGradient id="paint1_linear_21_15951" x1="24.0878" y1="28.4677" x2="86.5328" y2="28.8697" gradientUnits="userSpaceOnUse">
<stop stop-color="#8D62E3"/>
<stop offset="1" stop-color="#4F64F0"/>
</linearGradient>
<linearGradient id="paint2_linear_21_15951" x1="38.4785" y1="7.58048" x2="60.9851" y2="7.69436" gradientUnits="userSpaceOnUse">
<stop stop-color="#8D62E3"/>
<stop offset="1" stop-color="#4F64F0"/>
</linearGradient>
<linearGradient id="paint3_linear_21_15951" x1="62.583" y1="3.00728" x2="65.0223" y2="3.01439" gradientUnits="userSpaceOnUse">
<stop stop-color="#8D62E3"/>
<stop offset="1" stop-color="#4F64F0"/>
</linearGradient>
<linearGradient id="paint4_linear_21_15951" x1="62.583" y1="8.24287" x2="65.0223" y2="8.24999" gradientUnits="userSpaceOnUse">
<stop stop-color="#8D62E3"/>
<stop offset="1" stop-color="#4F64F0"/>
</linearGradient>
<linearGradient id="paint5_linear_21_15951" x1="64.655" y1="5.62512" x2="68.6101" y2="5.65545" gradientUnits="userSpaceOnUse">
<stop stop-color="#8D62E3"/>
<stop offset="1" stop-color="#4F64F0"/>
</linearGradient>
<linearGradient id="paint6_linear_21_15951" x1="59.4198" y1="5.62512" x2="63.3744" y2="5.65544" gradientUnits="userSpaceOnUse">
<stop stop-color="#8D62E3"/>
<stop offset="1" stop-color="#4F64F0"/>
</linearGradient>
<linearGradient id="paint7_linear_21_15951" x1="28.7705" y1="7.43099" x2="31.2098" y2="7.4381" gradientUnits="userSpaceOnUse">
<stop stop-color="#8D62E3"/>
<stop offset="1" stop-color="#4F64F0"/>
</linearGradient>
<linearGradient id="paint8_linear_21_15951" x1="28.7705" y1="12.6664" x2="31.2098" y2="12.6735" gradientUnits="userSpaceOnUse">
<stop stop-color="#8D62E3"/>
<stop offset="1" stop-color="#4F64F0"/>
</linearGradient>
<linearGradient id="paint9_linear_21_15951" x1="30.8418" y1="10.0488" x2="34.7969" y2="10.0792" gradientUnits="userSpaceOnUse">
<stop stop-color="#8D62E3"/>
<stop offset="1" stop-color="#4F64F0"/>
</linearGradient>
<linearGradient id="paint10_linear_21_15951" x1="25.6064" y1="10.0488" x2="29.5611" y2="10.0791" gradientUnits="userSpaceOnUse">
<stop stop-color="#8D62E3"/>
<stop offset="1" stop-color="#4F64F0"/>
</linearGradient>
<clipPath id="clip0_21_15951">
<rect width="45" height="45" fill="white" transform="translate(24)"/>
</clipPath>
</defs>
</svg>
