<svg width="45" height="45" viewBox="0 0 45 45" fill="none" xmlns="http://www.w3.org/2000/svg">
<path d="M43.6899 7.99839C43.6871 7.99839 43.6844 7.99805 43.6816 7.99805H31.7285V6.67969C31.7285 4.4989 29.9542 2.72461 27.7734 2.72461H17.2266C15.0458 2.72461 13.2715 4.4989 13.2715 6.67969V7.99805H1.31836C0.584335 7.99805 0 8.59955 0 9.31641V38.3203C0 40.5011 1.77429 42.2754 3.95508 42.2754H41.0449C43.2257 42.2754 45 40.5011 45 38.3203V9.34422C45 9.3425 45 9.34078 45 9.33907C44.9495 8.47321 44.417 8.0032 43.6899 7.99839ZM15.9082 6.67969C15.9082 5.95287 16.4997 5.36133 17.2266 5.36133H27.7734C28.5003 5.36133 29.0918 5.95287 29.0918 6.67969V7.99805H15.9082V6.67969ZM41.8524 10.6348L37.7583 22.9168C37.5787 23.4562 37.0761 23.8184 36.5079 23.8184H29.0918V22.5C29.0918 21.7718 28.5016 21.1816 27.7734 21.1816H17.2266C16.4984 21.1816 15.9082 21.7718 15.9082 22.5V23.8184H8.49209C7.92389 23.8184 7.42126 23.4562 7.24171 22.9168L3.14758 10.6348H41.8524ZM26.4551 23.8184V26.4551H18.5449V23.8184H26.4551ZM42.3633 38.3203C42.3633 39.0471 41.7717 39.6387 41.0449 39.6387H3.95508C3.22826 39.6387 2.63672 39.0471 2.63672 38.3203V17.4405L4.74026 23.7507C5.27927 25.3685 6.78715 26.4551 8.49209 26.4551H15.9082V27.7734C15.9082 28.5016 16.4984 29.0918 17.2266 29.0918H27.7734C28.5016 29.0918 29.0918 28.5016 29.0918 27.7734V26.4551H36.5079C38.2129 26.4551 39.7207 25.3685 40.2597 23.7507L42.3633 17.4405V38.3203Z" fill="url(#paint0_linear_21_16388)"/>
<defs>
<linearGradient id="paint0_linear_21_16388" x1="0" y1="22.5" x2="62.4456" y2="22.836" gradientUnits="userSpaceOnUse">
<stop stop-color="#8D62E3"/>
<stop offset="1" stop-color="#4F64F0"/>
</linearGradient>
</defs>
</svg>
