<svg width="45" height="45" viewBox="0 0 45 45" fill="none" xmlns="http://www.w3.org/2000/svg">
<path d="M44.9757 1.6333C44.9551 1.47171 44.9194 1.31607 44.8604 1.17004C44.8586 1.16638 44.8586 1.16135 44.8576 1.15677C44.8576 1.15585 44.8567 1.15494 44.8558 1.15402C44.7908 1.00021 44.702 0.860596 44.6017 0.731049C44.577 0.700378 44.5528 0.670166 44.5267 0.641327C44.4196 0.520477 44.3033 0.408783 44.1682 0.317688C44.1646 0.314941 44.16 0.314026 44.1563 0.311279C44.0259 0.22522 43.8817 0.160217 43.7306 0.108948C43.6931 0.0956726 43.6565 0.0842285 43.618 0.0741577C43.4596 0.0311279 43.2967 0 43.125 0H30C28.965 0 28.125 0.839996 28.125 1.875C28.125 2.91 28.965 3.75 30 3.75H38.5977L27.4068 14.9409C24.4226 12.5542 20.7486 11.25 16.875 11.25C7.5705 11.25 0 18.8205 0 28.125C0 37.4295 7.5705 45 16.875 45C26.1795 45 33.75 37.4295 33.75 28.125C33.75 24.2532 32.4467 20.5801 30.0581 17.5932L41.25 6.40137V15C41.25 16.035 42.09 16.875 43.125 16.875C44.16 16.875 45 16.035 45 15V1.875C45 1.83563 44.9908 1.7981 44.9886 1.75964C44.9858 1.71661 44.9812 1.67542 44.9757 1.6333ZM16.875 41.25C9.6373 41.25 3.75 35.3627 3.75 28.125C3.75 20.8873 9.6373 15 16.875 15C20.3792 15 23.6783 16.3641 26.1589 18.8361C28.6359 21.3217 30 24.6208 30 28.125C30 35.3627 24.1127 41.25 16.875 41.25Z" fill="url(#paint0_linear_21_15592)"/>
<defs>
<linearGradient id="paint0_linear_21_15592" x1="0" y1="22.5" x2="62.446" y2="22.7954" gradientUnits="userSpaceOnUse">
<stop stop-color="#8D62E3"/>
<stop offset="1" stop-color="#4F64F0"/>
</linearGradient>
</defs>
</svg>
