<svg width="55" height="52" viewBox="0 0 55 52" fill="none" xmlns="http://www.w3.org/2000/svg">
<path d="M36.8476 38.2116C9.52726 54.6758 6.27702 32.6163 8.61992 14.454C9.26909 9.42155 12.4759 5.02224 17.2042 3.18089C48.4728 -8.9962 73.4018 16.1828 36.8476 38.2116Z" fill="#C8C3E7"/>
<path fill-rule="evenodd" clip-rule="evenodd" d="M11.0832 26.2708C9.9901 26.2708 9.104 27.1569 9.104 28.25C9.104 29.3431 9.9901 30.2292 11.0832 30.2292C12.1762 30.2292 13.0623 29.3431 13.0623 28.25C13.0623 27.1569 12.1762 26.2708 11.0832 26.2708ZM6.729 28.25C6.729 25.8453 8.67844 23.8958 11.0832 23.8958C13.4879 23.8958 15.4373 25.8453 15.4373 28.25C15.4373 30.6548 13.4879 32.6042 11.0832 32.6042C8.67844 32.6042 6.729 30.6548 6.729 28.25Z" fill="black"/>
<path fill-rule="evenodd" clip-rule="evenodd" d="M16.0639 38.7074C14.085 40.9233 12.0213 43.9541 9.83936 47.8323C9.51776 48.4039 8.79371 48.6066 8.22212 48.285C7.65054 47.9633 7.44789 47.2394 7.76946 46.6678C9.99713 42.7084 12.1569 39.5167 14.2923 37.1255C16.4223 34.7402 18.586 33.0861 20.8351 32.3073C23.1274 31.5134 25.4163 31.6621 27.673 32.7141C29.8902 33.7475 32.0383 35.6328 34.1717 38.2505C34.5859 38.7589 34.5097 39.507 34.0013 39.9212C33.4929 40.3356 32.7449 40.2593 32.3306 39.7509C30.3156 37.2783 28.436 35.6901 26.6697 34.8666C24.9429 34.0618 23.2921 33.9698 21.6123 34.5515C19.8892 35.1483 18.0479 36.4857 16.0639 38.7074Z" fill="black"/>
<path fill-rule="evenodd" clip-rule="evenodd" d="M2.59855 19.7652C4.00901 18.3547 5.92198 17.5625 7.91659 17.5625H19.4433C20.0991 17.5625 20.6308 18.0942 20.6308 18.75C20.6308 19.4058 20.0991 19.9375 19.4433 19.9375H7.91659C6.55178 19.9375 5.24292 20.4796 4.27793 21.4446C3.31292 22.4096 2.77075 23.7185 2.77075 25.0833V40.9167C2.77075 42.2813 3.31289 43.5901 4.27793 44.5552C5.24298 45.5204 6.55186 46.0625 7.91659 46.0625H26.9166C28.2813 46.0625 29.5902 45.5204 30.5552 44.5552C31.5203 43.5901 32.0624 42.2813 32.0624 40.9167V33C32.0624 32.3442 32.5941 31.8125 33.2499 31.8125C33.9057 31.8125 34.4374 32.3442 34.4374 33V40.9167C34.4374 42.9114 33.6451 44.8242 32.2347 46.2346C30.8243 47.645 28.9113 48.4375 26.9166 48.4375H7.91659C5.92189 48.4375 4.00895 47.645 2.59855 46.2346C1.18813 44.8242 0.395752 42.9114 0.395752 40.9167V25.0833C0.395752 23.0887 1.1881 21.1757 2.59855 19.7652Z" fill="black"/>
<path fill-rule="evenodd" clip-rule="evenodd" d="M29.6875 14.1266C30.3433 14.1266 30.875 14.6583 30.875 15.3141V27.9808C30.875 28.6366 30.3433 29.1683 29.6875 29.1683C29.0317 29.1683 28.5 28.6366 28.5 27.9808V15.3141C28.5 14.6583 29.0317 14.1266 29.6875 14.1266Z" fill="black"/>
<path fill-rule="evenodd" clip-rule="evenodd" d="M28.8491 14.4744C29.3128 14.0107 30.0646 14.0107 30.5283 14.4744L35.595 19.5411C36.0588 20.0048 36.0588 20.7567 35.595 21.2205C35.1312 21.6842 34.3795 21.6842 33.9157 21.2205L29.6887 16.9935L25.4617 21.2205C24.9979 21.6842 24.246 21.6842 23.7824 21.2205C23.3186 20.7567 23.3186 20.0048 23.7824 19.5411L28.8491 14.4744Z" fill="black"/>
</svg>
