<svg width="45" height="45" viewBox="0 0 45 45" fill="none" xmlns="http://www.w3.org/2000/svg">
<path d="M34.8926 1.15015H10.1074C4.53419 1.15015 0 5.68434 0 11.2576V23.5623C0 28.6889 3.83625 32.9362 8.78906 33.5841V42.5314C8.78906 43.0647 9.1103 43.5454 9.60293 43.7494C9.76606 43.817 9.93735 43.8498 10.1072 43.8498C10.4503 43.8498 10.7875 43.7158 11.0397 43.4636L20.8336 33.6697H34.8926C40.4658 33.6697 45 29.1355 45 23.5623V11.2576C45 5.68434 40.4658 1.15015 34.8926 1.15015ZM42.3633 23.5623C42.3633 27.6816 39.0119 31.033 34.8926 31.033H20.2875C19.9379 31.033 19.6025 31.1718 19.3553 31.4191L11.4258 39.3486V32.3513C11.4258 31.6232 10.8355 31.033 10.1074 31.033C5.98808 31.033 2.63672 27.6816 2.63672 23.5623V11.2576C2.63672 7.13822 5.98808 3.78686 10.1074 3.78686H34.8926C39.0119 3.78686 42.3633 7.13822 42.3633 11.2576V23.5623Z" fill="url(#paint0_linear_21_16648)"/>
<path d="M26.3539 9.71167C24.8984 9.71167 23.53 10.2777 22.5001 11.3056C20.3724 9.18257 16.914 9.18398 14.788 11.31C12.6608 13.4374 12.6608 16.8989 14.7882 19.0263L21.568 25.8058C21.8255 26.0633 22.1629 26.192 22.5002 26.192C22.8375 26.192 23.1749 26.0633 23.4325 25.8058L30.2121 19.0261C31.2428 17.9955 31.8104 16.6254 31.8104 15.168C31.8104 13.7106 31.2428 12.3404 30.2122 11.31C29.1816 10.2793 27.8114 9.71167 26.3539 9.71167ZM28.3476 17.1617L22.5001 23.0092L16.6526 17.1619C15.5532 16.0626 15.5531 14.2737 16.6524 13.1743C17.2022 12.6245 17.9241 12.3498 18.6462 12.3498C19.3681 12.3498 20.0902 12.6247 20.6399 13.1743L21.5679 14.1022C22.0828 14.617 22.9175 14.617 23.4324 14.1022L24.3602 13.1743C24.8928 12.6417 25.6007 12.3484 26.3539 12.3484C27.107 12.3484 27.815 12.6417 28.3476 13.1744C28.8803 13.7069 29.1736 14.415 29.1736 15.1681C29.1736 15.9211 28.8802 16.6291 28.3476 17.1617Z" fill="url(#paint1_linear_21_16648)"/>
<defs>
<linearGradient id="paint0_linear_21_16648" x1="0" y1="22.5" x2="62.4459" y2="22.8112" gradientUnits="userSpaceOnUse">
<stop stop-color="#8D62E3"/>
<stop offset="1" stop-color="#4F64F0"/>
</linearGradient>
<linearGradient id="paint1_linear_21_16648" x1="13.1926" y1="17.9518" x2="39.0281" y2="18.0899" gradientUnits="userSpaceOnUse">
<stop stop-color="#8D62E3"/>
<stop offset="1" stop-color="#4F64F0"/>
</linearGradient>
</defs>
</svg>
