<svg width="45" height="37" viewBox="0 0 45 37" fill="none" xmlns="http://www.w3.org/2000/svg">
<path d="M44.6139 26.8837L41.1284 23.3982V11.4423L43.4039 10.6219C43.9263 10.4335 44.2746 9.93812 44.2751 9.3827C44.2755 8.82747 43.9278 8.33137 43.4057 8.14233L22.5864 0.602568C22.2964 0.497549 21.9786 0.497549 21.6886 0.602568L0.869427 8.14233C0.349252 8.33075 0.00211729 8.82377 8.11904e-06 9.37699C-0.00192529 9.93021 0.341606 10.4258 0.860287 10.618L8.54374 13.4642V22.1519C8.54374 22.4215 8.62635 22.6847 8.78058 22.9058C8.86539 23.0275 9.66872 24.1245 11.7255 25.1598C14.3239 26.4678 17.732 27.131 21.8549 27.131C25.9748 27.131 29.4001 26.4692 32.0356 25.1637C34.1127 24.1349 34.9428 23.0493 35.0307 22.929C35.1952 22.7034 35.2838 22.4314 35.2838 22.1521V13.5493L38.492 12.3927V23.3982L35.0064 26.8837C34.7592 27.131 34.6202 27.4662 34.6202 27.8158C34.6202 28.1654 34.7591 28.5008 35.0064 28.7479L38.492 32.2334V35.1579C38.492 35.8859 39.0822 36.4761 39.8102 36.4761C40.5382 36.4761 41.1284 35.8859 41.1284 35.1579V32.2334L44.6139 28.7479C45.1288 28.2333 45.1288 27.3985 44.6139 26.8837ZM22.1375 3.24404L39.0778 9.37901L21.8611 15.586L5.15087 9.3958L22.1375 3.24404ZM32.6473 21.6265C28.1408 25.6816 14.7495 25.2166 11.1802 21.6397V14.4409L21.397 18.2257C21.5591 18.2513 21.7122 18.3912 22.302 18.2297L32.6474 14.5L32.6473 21.6265ZM39.8101 29.8232L37.8026 27.8158L39.8101 25.8083L41.8175 27.8158L39.8101 29.8232Z" fill="url(#paint0_linear_21_16535)"/>
<defs>
<linearGradient id="paint0_linear_21_16535" x1="0" y1="18.4999" x2="62.4453" y2="18.8696" gradientUnits="userSpaceOnUse">
<stop stop-color="#8D62E3"/>
<stop offset="1" stop-color="#4F64F0"/>
</linearGradient>
</defs>
</svg>
