<svg width="45" height="45" viewBox="0 0 45 45" fill="none" xmlns="http://www.w3.org/2000/svg">
<path d="M43.3665 9.66602L35.3115 1.61552C35.2279 1.53184 35.1287 1.46546 35.0194 1.42017C34.9101 1.37487 34.793 1.35156 34.6748 1.35156C34.5565 1.35156 34.4394 1.37487 34.3301 1.42017C34.2208 1.46546 34.1216 1.53184 34.038 1.61552L31.05 4.59002L22.2345 13.419L13.41 22.2435L4.5945 31.05L1.6515 34.002C1.56782 34.0856 1.50144 34.1849 1.45615 34.2941C1.41086 34.4034 1.38754 34.5205 1.38754 34.6388C1.38754 34.757 1.41086 34.8742 1.45615 34.9834C1.50144 35.0927 1.56782 35.1919 1.6515 35.2755L9.702 43.326C9.78559 43.4097 9.88485 43.4761 9.9941 43.5214C10.1034 43.5667 10.2205 43.59 10.3388 43.59C10.457 43.59 10.5741 43.5667 10.6834 43.5214C10.7927 43.4761 10.8919 43.4097 10.9755 43.326L43.3755 10.926C43.5456 10.7617 43.6443 10.537 43.65 10.3005C43.6472 10.1812 43.6206 10.0637 43.572 9.9548C43.5233 9.84587 43.4535 9.74771 43.3665 9.66602ZM10.35 41.4L3.5595 34.65L5.229 32.976L7.884 35.6355C7.9681 35.7189 8.06783 35.7849 8.17749 35.8297C8.28714 35.8745 8.40456 35.8972 8.523 35.8965C8.76067 35.8967 8.98876 35.8029 9.1575 35.6355C9.24118 35.5519 9.30756 35.4527 9.35285 35.3434C9.39815 35.2342 9.42146 35.117 9.42146 34.9988C9.42146 34.8805 9.39815 34.7634 9.35285 34.6541C9.30756 34.5449 9.24118 34.4456 9.1575 34.362L6.5025 31.707L8.1765 30.033L9.873 31.7295C10.0417 31.8969 10.2698 31.9907 10.5075 31.9905C10.6853 31.9907 10.8592 31.9381 11.0072 31.8395C11.1552 31.7409 11.2707 31.6007 11.3391 31.4365C11.4074 31.2723 11.4256 31.0916 11.3913 30.9171C11.3571 30.7426 11.2719 30.5821 11.1465 30.456L9.45 28.7505L11.133 27.0675L13.788 29.7225C13.8721 29.8059 13.9718 29.8719 14.0815 29.9167C14.1911 29.9615 14.3086 29.9842 14.427 29.9835C14.6647 29.9837 14.8928 29.8899 15.0615 29.7225C15.1452 29.6389 15.2116 29.5397 15.2569 29.4304C15.3021 29.3212 15.3255 29.204 15.3255 29.0858C15.3255 28.9675 15.3021 28.8504 15.2569 28.7411C15.2116 28.6319 15.1452 28.5326 15.0615 28.449L12.4065 25.794L14.0445 24.156L15.75 25.8525C15.9187 26.0199 16.1468 26.1137 16.3845 26.1135C16.5623 26.1137 16.7362 26.0611 16.8842 25.9625C17.0322 25.8639 17.1477 25.7237 17.2161 25.5595C17.2844 25.3953 17.3026 25.2146 17.2683 25.0401C17.2341 24.8656 17.1489 24.7051 17.0235 24.579L15.3 22.8825L16.983 21.1995L19.638 23.8545C19.7221 23.9379 19.8218 24.0039 19.9315 24.0487C20.0411 24.0935 20.1586 24.1162 20.277 24.1155C20.398 24.1174 20.5182 24.0949 20.6303 24.0493C20.7424 24.0036 20.8442 23.9359 20.9295 23.85C21.0132 23.7664 21.0796 23.6672 21.1249 23.5579C21.1701 23.4487 21.1935 23.3315 21.1935 23.2133C21.1935 23.095 21.1701 22.9779 21.1249 22.8686C21.0796 22.7594 21.0132 22.6601 20.9295 22.5765L18.2745 19.9215L19.9125 18.2835L21.6 19.9845C21.7687 20.1519 21.9968 20.2457 22.2345 20.2455C22.4123 20.2457 22.5862 20.1931 22.7342 20.0945C22.8822 19.9959 22.9977 19.8557 23.0661 19.6915C23.1344 19.5273 23.1526 19.3466 23.1183 19.1721C23.0841 18.9976 22.9989 18.8371 22.8735 18.711L21.177 17.0145L22.86 15.3315L25.515 17.9865C25.5991 18.0699 25.6988 18.1359 25.8085 18.1807C25.9181 18.2255 26.0356 18.2482 26.154 18.2475C26.2723 18.2506 26.39 18.2303 26.5004 18.1878C26.6108 18.1454 26.7118 18.0815 26.7975 18C26.8812 17.9164 26.9476 17.8172 26.9929 17.7079C27.0381 17.5987 27.0615 17.4815 27.0615 17.3633C27.0615 17.245 27.0381 17.1279 26.9929 17.0186C26.9476 16.9094 26.8812 16.8101 26.7975 16.7265L24.1425 14.0715L25.7805 12.4335L27.477 14.13C27.6457 14.2974 27.8738 14.3912 28.1115 14.391C28.2893 14.3912 28.4632 14.3386 28.6112 14.24C28.7592 14.1414 28.8747 14.0012 28.9431 13.837C29.0114 13.6728 29.0296 13.4921 28.9953 13.3176C28.9611 13.1431 28.8759 12.9826 28.7505 12.8565L27.054 11.16L28.8 9.40952L31.455 12.0645C31.628 12.2019 31.8455 12.2709 32.0661 12.2583C32.2867 12.2457 32.4949 12.1524 32.6511 11.9961C32.8073 11.8399 32.9007 11.6317 32.9133 11.4111C32.9259 11.1905 32.8569 10.973 32.7195 10.8L30.0645 8.14502L31.698 6.50702L33.3945 8.20352C33.4782 8.28775 33.5778 8.35457 33.6875 8.40014C33.7971 8.4457 33.9147 8.46911 34.0335 8.46902C34.2122 8.46742 34.3864 8.41265 34.5339 8.31167C34.6814 8.2107 34.7955 8.0681 34.8616 7.90205C34.9277 7.736 34.9429 7.55402 34.9052 7.37931C34.8675 7.20459 34.7787 7.04505 34.65 6.92102L32.9535 5.22452L34.659 3.52352L41.454 10.3005L10.35 41.4Z" fill="url(#paint0_linear_21_16290)"/>
<defs>
<linearGradient id="paint0_linear_21_16290" x1="1.38754" y1="22.4708" x2="60.0347" y2="22.7483" gradientUnits="userSpaceOnUse">
<stop stop-color="#8D62E3"/>
<stop offset="1" stop-color="#4F64F0"/>
</linearGradient>
</defs>
</svg>
